<svg xmlns="http://www.w3.org/2000/svg" viewBox="0 0 394.4 100"><path fill-rule="evenodd" fill="#6F63F5" d="M 34.6 0.5 C 32.3 1 30.2 2.7 29.2 4.7 C 28.3 6.7 28.4 5.4 28.4 21.1 C 28.4 36.8 28.3 35.5 29.2 37.2 C 30.1 38.9 30.9 39.4 34.9 40.8 C 36.3 41.3 37.9 41.9 38.5 42.2 C 39.1 42.4 40.5 42.9 41.7 43.3 C 43.8 44 45 44.5 48.5 45.8 C 49.4 46.1 50.8 46.6 51.5 46.9 C 54.1 47.7 55.3 48.6 56.2 50.3 C 57.1 51.7 57 51.4 57.1 59.4 C 57.1 63.3 57.2 66.6 57.2 66.8 C 57.3 67.1 57.3 67.1 57.5 67.1 C 57.7 67.2 58.1 67.3 58.5 67.4 C 60.4 67.9 62.4 67.5 64.5 66.3 C 65 66 65.6 65.6 66 65.4 C 67.3 64.7 67.8 64.4 68.8 63.9 C 69.3 63.5 70.1 63.1 70.4 62.9 C 71.7 62.2 72.2 61.9 73 61.5 C 73.4 61.3 73.7 61.1 73.8 61.1 C 73.8 61.1 74 61 74.2 60.8 C 74.4 60.7 75 60.4 75.4 60.1 C 75.9 59.9 76.4 59.6 76.6 59.5 C 76.8 59.4 77.5 58.9 78.3 58.5 C 79.5 57.9 79.8 57.7 80.9 57.1 C 81.2 56.9 81.7 56.6 82.1 56.4 C 82.5 56.2 82.9 55.9 83.1 55.8 C 83.3 55.7 84.3 55.1 85.2 54.6 C 86.2 54.1 87 53.6 87 53.6 C 87.1 53.6 87.5 53.4 87.9 53.1 C 89.2 52.3 93.2 50.1 93.8 49.7 C 95.4 48.9 97.2 46.8 98 44.8 C 98.8 42.8 99 40.4 98.4 38.6 C 97.5 35.5 95.6 33.3 92.4 31.6 C 92.3 31.5 91.7 31.2 91.1 30.8 C 89.4 29.8 88.3 29.2 87.6 28.7 C 87.2 28.5 86.8 28.3 86.8 28.2 C 86.7 28.2 86.6 28.1 86.5 28.1 C 86.5 28.1 85.8 27.7 85 27.2 C 84.2 26.7 83.3 26.2 83 26 C 82.7 25.9 82.4 25.7 82.3 25.7 C 82.1 25.5 80.6 24.6 80.3 24.5 C 79.9 24.2 78.6 23.4 78.5 23.4 C 78.5 23.4 77.7 23 76.8 22.5 C 75.9 21.9 74.1 20.8 72.7 20 C 71.3 19.2 69.6 18.2 69 17.9 C 68.4 17.5 67.6 17.1 67.3 16.9 C 66.4 16.4 65.8 16 63.8 14.9 C 61.8 13.6 59.6 12.4 57.6 11.3 C 56.8 10.8 55.6 10.1 55.2 9.8 C 54.7 9.5 53.3 8.7 52 8 C 50.8 7.3 48.9 6.2 47.8 5.5 C 46.7 4.9 45 3.9 44 3.4 C 43 2.8 41.8 2.1 41.2 1.8 C 38.7 0.3 36.9 0 34.6 0.5 M 6.8 31.8 C 4.3 32.3 2 34.1 1 36.3 C 0 38.3 0.1 35.4 0.1 65.7 C 0.1 83.1 0.1 92.6 0.2 93 C 0.7 95.5 2.6 98.1 4.9 99.3 C 6.2 99.9 6.7 100 8.7 100 C 10.7 100 11.6 99.8 12.8 99.1 C 13 98.9 13.5 98.7 13.9 98.4 C 14.3 98.2 14.9 97.9 15.2 97.8 C 15.5 97.6 16 97.3 16.4 97.1 C 17.6 96.5 18.4 96 19.4 95.4 C 19.9 95.1 20.7 94.7 21.2 94.5 C 22.4 93.8 23.9 93 24 92.9 C 24 92.9 24.4 92.7 24.7 92.5 C 25.1 92.3 25.5 92 25.8 91.9 C 26.1 91.7 26.7 91.4 27.1 91.1 C 30 89.5 34.8 86.8 40.5 83.6 C 41.4 83.1 42.5 82.5 43 82.2 C 43.5 81.9 45 81.1 46.4 80.3 C 47.8 79.5 49.6 78.5 50.4 78 C 52.4 76.9 53 76.4 53.7 75.6 C 55.8 73.1 56.2 69.6 54.7 67.3 C 53.6 65.6 52.5 64.9 48.8 63.5 C 47.7 63.1 46.7 62.7 46.4 62.6 C 46.2 62.5 44.1 61.7 41.8 60.7 C 39.5 59.7 36.4 58.4 34.9 57.8 C 33.4 57.1 32 56.5 31.7 56.4 C 30.8 55.9 29.7 54.7 29.1 53.5 C 28.5 52.4 28.5 52.2 28.4 46 L 28.3 40.4 27.6 39.9 C 27.1 39.6 26.2 39.1 25.5 38.8 C 24.1 38.1 22.1 37.2 18.4 35.4 C 12.4 32.4 11.6 32 10.6 31.8 C 9.6 31.6 7.8 31.6 6.8 31.8"/><path fill-rule="evenodd" fill="#101119" d="M 262 19.2 L 261.6 19.2 261.6 45.4 L 261.6 71.6 267.7 71.6 C 272.2 71.6 273.9 71.6 274 71.5 C 274.1 71.4 274.1 71.1 274.1 70 C 274.1 68.4 274.2 68.3 274.6 68.8 C 275.1 69.3 277.6 70.7 278.5 71 C 284.4 73.1 291.6 71.9 296.7 67.8 C 297.3 67.3 299.3 65.3 299.8 64.7 C 300.2 64.1 301.2 62.7 301.2 62.7 C 301.2 62.7 301.3 62.4 301.5 62.2 C 302 61.5 302.7 59.9 303.1 58.7 C 303.9 56.1 304.2 54.9 304.3 52.1 C 304.4 49.6 303.8 46.2 302.9 44.2 C 302.8 44 302.7 43.8 302.7 43.8 C 302.7 43.5 301.6 41.4 300.8 40.2 C 296.3 33.4 287.8 30.1 280.1 32.1 C 278.6 32.5 275.8 33.9 274.7 34.8 C 274.5 35 274.3 35.1 274.2 35.1 C 274.2 35.1 274.1 32.8 274.1 27.2 C 274.1 22.9 274.1 19.3 274 19.3 C 273.9 19.2 262.6 19.1 262 19.2 M 236.9 19.2 C 236.7 19.3 236.7 57.6 237 59.4 C 237.6 64.5 239.7 67.9 243.6 69.8 C 244.6 70.3 246.8 71 248 71.3 C 249.8 71.6 250.4 71.6 254.5 71.6 C 258.4 71.6 258.6 71.6 258.7 71.4 C 258.8 71.2 258.8 60.9 258.7 60.7 C 258.6 60.5 258.1 60.5 255.6 60.4 C 252.8 60.4 252.7 60.4 252 60.1 C 250.7 59.6 250.1 59.1 249.7 58 C 249.5 57.4 249.5 57.3 249.5 50.4 C 249.5 45.9 249.5 43.4 249.5 43.2 C 249.6 43 249.9 43 254.1 43 C 257.1 43 258.5 43 258.6 42.9 C 258.8 42.7 258.8 32.7 258.6 32.4 C 258.5 32.3 258.1 32.2 254.1 32.2 C 251.7 32.2 249.7 32.2 249.6 32.2 C 249.5 32.1 249.4 31.1 249.4 25.8 C 249.4 20.8 249.4 19.4 249.3 19.3 C 249.2 19.2 237.1 19.2 236.9 19.2 M 216.5 31.5 C 214.9 31.7 212.8 32.2 211.4 32.7 C 211.2 32.8 210.9 32.9 210.8 32.9 C 210.7 33 210.1 33.3 209.5 33.6 C 206.6 35 204.4 37.2 203.5 39.7 C 201.8 44.2 202.8 48.7 206.1 51.9 C 208.1 53.8 210.4 54.9 215.1 56.3 C 215.6 56.4 216 56.6 216.2 56.6 C 216.3 56.7 216.7 56.8 217 56.9 C 221.1 58 222.2 58.7 222.2 59.9 C 222 61.2 220.8 61.9 218.5 61.9 C 216 61.9 213.9 61 212 59 C 211.1 58.1 211.1 58.1 210.6 58.3 C 210.5 58.4 210.1 58.5 209.9 58.6 C 207.4 59.6 203 61.6 202.1 62.2 C 201.8 62.5 201.8 62.6 202.4 63.9 C 204.1 67.3 206.8 69.6 210.9 70.9 C 215.3 72.4 220.9 72.4 225.1 71 C 226.4 70.5 226.7 70.4 227.6 70 C 232.5 67.6 235 63.8 235 59.1 C 234.9 55.9 234.1 54 232 51.8 C 229.8 49.6 226.5 48.1 220.1 46.4 C 216.5 45.4 215.7 45 215.4 43.9 C 214.9 41.8 218.5 40.6 221.2 41.9 C 221.9 42.3 223.1 43.4 223.7 44.2 C 224.2 44.9 224.3 45 224.5 44.8 C 224.6 44.7 225.2 44.4 226 44.1 C 226.8 43.8 227.5 43.5 227.5 43.4 C 227.6 43.4 227.9 43.3 228.1 43.2 C 228.4 43 229.1 42.7 229.7 42.4 C 230.3 42.1 231.4 41.7 232.1 41.4 C 233.8 40.6 233.7 40.7 233.3 39.8 C 231.6 36 228.5 33.4 224.3 32.2 C 222.3 31.6 221.4 31.5 219.1 31.5 C 217.8 31.4 216.7 31.5 216.5 31.5 M 177.5 31.7 C 175.5 32.1 174.3 32.4 172.6 33 C 172 33.2 170.3 34.1 169.5 34.6 C 166.8 36.2 164.2 38.7 162.5 41.2 C 162.1 41.9 160.7 44.5 160.6 44.9 C 160.5 45.1 160.4 45.6 160.2 46 C 159.2 48.9 159.1 53.1 159.8 56.3 C 160.2 57.7 160.3 58.1 161.2 60.1 C 161.4 60.4 161.5 60.8 161.5 60.8 C 161.5 60.9 162.5 62.5 163.1 63.3 C 163.9 64.3 166 66.4 166.9 67.1 C 171.4 70.5 177.3 72.2 182.7 71.6 C 191.8 70.5 198.8 64.8 201.1 56.3 C 201.3 55.4 201.7 52.4 201.7 51.5 C 201.8 50.1 201 46.4 200.4 45 C 197.8 38.4 192.2 33.6 185.2 32 C 183 31.5 179.4 31.4 177.5 31.7 M 322.9 31.7 C 318.3 32.6 315 34.3 311.9 37.4 C 306.4 43 304.6 51.4 307.4 58.9 C 310.3 66.9 317.6 72 326.1 72 C 328.2 72 329.5 71.8 331.1 71.2 C 332.6 70.7 334.8 69.6 335.7 68.9 C 336 68.7 336.4 68.4 336.4 68.4 C 336.5 68.4 336.5 69.1 336.5 69.9 C 336.5 70.7 336.6 71.4 336.7 71.5 C 336.8 71.7 348.8 71.7 349 71.5 C 349.2 71.3 349.1 33.1 348.9 32.9 C 348.7 32.7 336.8 32.7 336.7 32.9 C 336.6 33 336.5 33.5 336.5 34.3 C 336.5 35 336.5 35.5 336.5 35.6 C 336.4 35.6 336.3 35.5 336.1 35.4 C 335.1 34.5 333.4 33.4 331.5 32.6 C 329.2 31.6 325.6 31.2 322.9 31.7 M 135.4 32 C 133.7 32.3 132.3 32.7 131 33.3 C 129.8 33.9 128.2 34.9 127.7 35.4 C 127.5 35.5 127.4 35.7 127.3 35.7 C 127.3 35.7 127.2 35.1 127.2 34.4 C 127.2 33.5 127.2 33 127.1 32.9 C 126.9 32.7 114.9 32.7 114.7 32.9 C 114.6 33 114.6 38.8 114.6 58.3 C 114.6 83.3 114.6 83.7 114.8 83.8 C 115 83.9 126.9 83.9 127.1 83.8 C 127.2 83.7 127.2 81.8 127.2 76 C 127.2 71.7 127.3 68.3 127.3 68.3 C 127.4 68.2 127.5 68.3 127.6 68.4 C 128.2 68.9 130.8 70.3 132 70.7 C 138.8 73 146.5 71.1 151.7 65.9 C 152.9 64.7 154.8 62.2 154.8 61.8 C 154.8 61.8 154.9 61.6 155.1 61.3 C 155.6 60.4 156.4 58.3 156.7 57.2 C 158.6 50 156.8 42.8 151.7 37.7 C 150.1 36 146.7 33.8 145.3 33.4 C 145.2 33.3 144.8 33.2 144.5 33.1 C 141.8 32 138.2 31.6 135.4 32 M 350 32.9 C 349.8 33 349.8 33.1 350 33.5 C 350.3 34.1 350.5 34.5 350.8 35.3 C 351 35.9 351.4 36.7 351.7 37.5 C 351.8 37.6 351.9 38 352 38.2 C 352.1 38.4 352.3 38.7 352.3 38.8 C 352.4 38.9 352.5 39.3 352.7 39.7 C 352.8 40 353.1 40.7 353.3 41.1 C 353.9 42.4 354.2 43.1 355 45.2 C 355.2 45.6 355.5 46.3 355.6 46.6 C 355.8 47 355.9 47.3 355.9 47.4 C 355.9 47.4 356 47.6 356 47.7 C 356.1 47.8 356.4 48.4 356.7 49.1 C 357 49.9 357.2 50.5 357.3 50.6 C 357.3 50.8 357.6 51.3 357.8 51.9 C 358 52.5 358.4 53.3 358.6 53.8 C 358.9 54.3 359 54.7 359 54.7 C 359 54.8 359.2 55.2 359.5 55.8 C 359.7 56.3 360 57.1 360.1 57.4 C 360.3 57.8 360.5 58.3 360.6 58.6 C 360.8 58.9 361 59.3 361.1 59.6 C 361.2 59.8 361.3 60.1 361.4 60.3 C 361.6 60.8 361.9 61.6 363.4 65 C 364.9 68.6 364.9 68.6 364.3 70 C 362.7 73.2 360.8 74.6 357.3 74.9 L 356 75 356 80.6 C 355.9 83.6 356 86.1 356 86.2 C 356 86.2 356.7 86.3 357.5 86.4 C 360.6 86.7 364 85.9 367 84.3 C 370.1 82.6 373.4 79.4 375.4 76.1 C 376.5 74.3 377 73.2 377.9 71.2 C 378.2 70.5 378.5 69.7 378.5 69.6 C 378.6 69.5 378.6 69.4 378.6 69.4 C 378.6 69.3 378.8 68.8 379.1 68.3 C 379.4 67.7 379.6 67.3 379.6 67.2 C 379.6 67.2 379.7 67 379.8 66.7 C 380 66.1 380.1 66 380.4 65.3 C 380.6 64.8 380.9 64 381 63.7 C 381.1 63.6 381.2 63.3 381.3 63 C 381.5 62.7 381.6 62.4 381.6 62.3 C 381.9 61.7 382.3 60.9 382.8 59.5 C 383.5 58 383.8 57.4 384.6 55.4 C 384.8 55.2 385.1 54.3 385.5 53.4 C 385.9 52.5 386.3 51.4 386.5 51 C 386.7 50.6 387.3 49.3 387.8 48.3 C 388.9 45.7 389 45.4 389.5 44.2 C 389.7 43.8 390.2 42.6 390.7 41.4 C 391.2 40.3 391.8 39 391.9 38.7 C 392.1 38.3 392.6 37.1 393.1 36.1 C 393.5 35 394 33.9 394.2 33.6 C 394.4 33.2 394.4 33 394.3 32.9 C 394.2 32.8 392.7 32.8 387.7 32.8 C 384.1 32.9 381.1 32.9 381 32.9 C 380.9 32.9 380.8 33.1 380.6 33.4 C 380.2 34.3 379.3 36.4 378.9 37.5 C 378.5 38.6 377.9 39.9 377.8 40.3 C 377.7 40.5 377.6 40.7 377.5 40.9 C 377.5 41.1 377.2 41.9 376.8 42.7 C 375.8 45.2 374.7 47.9 374.2 49.1 C 374 49.8 373.6 50.7 373.4 51.1 C 373.2 51.5 372.9 52.3 372.7 52.8 C 372.5 53.4 372.3 53.8 372.3 53.8 C 372.2 53.8 372 53.4 371.8 53 C 371.6 52.5 371.3 51.9 371.2 51.6 C 371.1 51.3 370.8 50.6 370.6 50.2 C 370.2 49.1 369.2 46.8 368.9 46.1 C 368.7 45.7 368.2 44.5 367.8 43.4 C 366.9 41.4 365 36.8 364 34.4 C 363.7 33.6 363.3 33 363.2 32.9 C 362.9 32.7 350.2 32.7 350 32.9 M 179.6 43.4 C 176.5 43.9 174.6 45.1 173.2 47.2 C 172.2 48.8 171.7 51.2 172 53 C 172.5 55.8 173.9 57.7 176.4 59.1 C 179.7 60.9 183.9 60.3 186.6 57.8 C 188.7 55.9 189.5 53.6 189.2 50.7 C 188.8 47 186.1 44.3 182.2 43.5 C 181.4 43.3 180.2 43.3 179.6 43.4 M 135 43.5 C 130.2 44.3 127.3 47.5 127.3 51.9 C 127.3 55.7 129.9 58.7 134 59.8 C 137.9 60.8 142.4 58.9 144.1 55.4 C 145 53.7 145.3 51.5 144.8 50.1 C 144.8 50 144.6 49.5 144.5 49 C 143.7 46.3 141.1 44.2 137.8 43.6 C 137 43.5 135.6 43.4 135 43.5 M 280.9 43.6 C 278.2 44.1 276 45.8 275 47.8 C 273 52.1 274.4 56.9 278.2 59 C 280 60.1 282 60.5 283.8 60.2 C 286.7 59.8 288.6 58.7 290.1 56.7 C 292.2 53.8 292.3 50.2 290.3 47.3 C 288.4 44.4 284.4 42.9 280.9 43.6 M 325.5 43.6 C 321.4 44.5 318.7 47.8 318.7 51.8 C 318.7 58 325.1 61.9 331.2 59.4 C 333.2 58.6 335.4 56.3 336.1 54.3 C 337.1 51.5 336.4 48.3 334.2 46.1 C 332.1 43.9 328.7 43 325.5 43.6"/></svg>
